<?xml version="1.0" encoding="UTF-8" standalone="no"?>
<svg
   xmlns:dc="http://purl.org/dc/elements/1.1/"
   xmlns:cc="http://creativecommons.org/ns#"
   xmlns:rdf="http://www.w3.org/1999/02/22-rdf-syntax-ns#"
   xmlns:svg="http://www.w3.org/2000/svg"
   xmlns="http://www.w3.org/2000/svg"
   xml:space="preserve"
   enable-background="new 0 0 841.89 595.28"
   viewBox="0 0 239.82052 32.644133"
   height="32.644135"
   width="239.82053"
   y="0px"
   x="0px"
   id="Calque_1"
   version="1.1"><metadata
     id="metadata156"><rdf:RDF><cc:Work
         rdf:about=""><dc:format>image/svg+xml</dc:format><dc:type
           rdf:resource="http://purl.org/dc/dcmitype/StillImage" /><dc:title></dc:title></cc:Work></rdf:RDF></metadata><defs
     id="defs154" /><g
     transform="translate(-301.02324,-274.51601)"
     id="g149"><path
       style="fill:#ffffff"
       id="path103"
       d="m 398.415,297.373 c -0.931,0.929 -1.717,1.664 -2.439,2.458 -0.292,0.322 -0.443,0.772 -0.658,1.165 0.461,0.039 1.019,0.266 1.367,0.086 1.491,-0.766 2.322,-2.118 2.981,-3.619 0.218,-0.497 0.603,-1.03 1.058,-1.298 4.087,-2.407 4.24,-7.628 0.183,-10.083 -1.385,-0.837 -2.982,-1.324 -4.478,-1.979 -1.093,-0.479 -2.253,-0.856 -3.254,-1.484 -1.7,-1.064 -1.823,-2.97 -0.365,-4.367 1.477,-1.416 3.272,-1.598 5.226,-1.326 -0.824,2.357 -0.491,4.028 0.9,4.83 1.025,0.591 2.113,0.454 2.835,-0.356 1.042,-1.17 0.736,-2.829 -1.041,-5.16 0.673,-0.154 1.294,-0.232 1.86,-0.451 0.297,-0.115 0.499,-0.476 0.744,-0.726 -0.263,-0.193 -0.553,-0.578 -0.784,-0.545 -0.893,0.127 -1.765,0.393 -2.647,0.595 -0.588,0.134 -1.187,0.375 -1.771,0.347 -1.863,-0.087 -3.689,-0.041 -5.347,0.937 -1.463,0.862 -2.368,2.089 -2.432,3.866 -0.065,1.814 0.805,3.069 2.325,3.872 1.052,0.556 2.208,0.91 3.293,1.407 1.624,0.742 3.382,1.315 4.802,2.347 2.464,1.791 1.991,5.38 -0.734,6.678 -0.086,-0.426 -0.16,-0.85 -0.257,-1.268 -1.003,-4.305 -5.904,-6.813 -9.968,-5.082 -1.481,0.631 -2.553,1.684 -2.786,3.337 -0.253,1.801 0.49,3.25 1.998,4.182 0.932,0.576 1.999,1.106 3.062,1.259 1.921,0.274 3.884,0.251 6.327,0.378 z m -84.997,-16.929 c -0.22,1.035 -0.567,1.954 -0.58,2.876 -0.033,2.231 0.066,4.465 0.157,6.696 0.094,2.32 0.293,4.65 -0.958,6.77 -1.672,2.833 -5.559,3.776 -7.994,1.954 -1.639,-1.226 -2.048,-3.545 -0.769,-4.956 0.373,-0.412 1.072,-0.646 1.645,-0.696 0.208,-0.018 0.457,0.756 0.739,1.129 0.192,0.253 0.537,0.653 0.705,0.605 0.292,-0.083 0.657,-0.428 0.719,-0.721 0.266,-1.266 -0.538,-2.282 -1.837,-2.442 -1.554,-0.191 -2.909,0.537 -3.655,1.964 -1.517,2.9 0.154,6.405 3.445,7.23 4.334,1.087 8.392,-1.329 9.174,-5.761 0.383,-2.169 0.137,-4.448 0.183,-6.677 0.043,-2.107 0.052,-4.217 0.167,-6.321 0.038,-0.69 0.348,-1.167 1.33,-1.083 0.943,0.081 1.99,-0.136 2.874,-0.505 0.986,-0.413 1.305,-1.631 0.952,-2.697 -0.341,-1.03 -1.16,-1.205 -2.109,-1.173 -1.689,0.055 -2.609,1.204 -3.504,2.522 -1.219,-0.569 -2.41,-1.12 -3.596,-1.678 -1.75,-0.824 -3.537,-1.501 -5.521,-1.316 -1.409,0.131 -2.535,0.751 -3.12,2.09 -0.511,1.169 -0.513,2.377 0.312,3.395 0.269,0.332 0.9,0.37 1.366,0.542 -0.037,-0.458 0.067,-0.994 -0.135,-1.362 -0.797,-1.454 -0.125,-3.009 1.53,-3.208 0.696,-0.083 1.483,-0.081 2.122,0.163 2.152,0.824 4.259,1.772 6.358,2.66 z m 224.924,16.433 c 0.645,-0.826 1.331,-1.474 1.729,-2.266 0.646,-1.291 0.144,-2.764 -0.923,-3.205 -1.21,-0.501 -2.644,0.224 -3.063,1.708 -0.238,0.846 -0.183,1.775 -0.261,2.682 -1.239,0.027 -1.87,-0.42 -2.233,-1.667 -0.592,-2.038 0.514,-5.332 2.218,-6.607 1.511,-1.131 2.845,-0.685 3.368,1.147 0.119,0.418 0.085,0.889 0.245,1.286 0.125,0.311 0.441,0.545 0.673,0.814 0.248,-0.3 0.67,-0.576 0.714,-0.904 0.221,-1.616 -0.638,-3.409 -1.827,-4.028 -1.353,-0.704 -3.229,-0.364 -4.526,0.896 -2.076,2.018 -2.777,4.549 -2.414,7.343 0.277,2.135 1.756,3.238 3.942,3.201 0.237,-0.004 0.605,-0.125 0.693,-0.016 0.98,1.224 2.467,2.189 2.453,3.975 -0.014,1.877 -1.084,3.154 -2.74,3.881 -1.747,0.767 -3.562,1.05 -5.247,-0.159 -0.955,-0.686 -1.134,-2.143 -0.462,-3.143 0.687,-1.022 1.516,-1.189 2.52,-0.361 0.17,0.14 0.73,0.104 0.836,-0.046 0.167,-0.235 0.25,-0.816 0.107,-0.933 -0.494,-0.404 -1.072,-0.865 -1.67,-0.952 -1.614,-0.236 -3.097,0.927 -3.541,2.592 -0.514,1.926 0.363,3.768 2.169,4.556 2.417,1.055 6.044,0.343 7.927,-1.555 2.035,-2.053 2.12,-5.074 0.202,-7.242 -0.317,-0.357 -0.635,-0.713 -0.889,-0.997 z m -114.113,-12.37 c -0.065,0.437 -0.101,0.708 -0.147,0.977 -0.601,3.428 -1.117,6.867 -0.694,10.356 0.051,0.424 0.531,1.104 0.854,1.129 0.835,0.064 0.646,-0.701 0.639,-1.235 -0.041,-2.658 0.827,-5.025 2.375,-7.141 0.58,-0.792 1.273,-1.772 2.412,-1.415 1.067,0.335 0.832,1.508 0.963,2.379 0.069,0.468 0.067,0.962 0.007,1.433 -0.199,1.542 -0.481,3.074 -0.634,4.619 -0.037,0.372 0.3,0.78 0.466,1.172 0.322,-0.265 0.848,-0.476 0.936,-0.803 0.687,-2.565 1.014,-5.19 0.549,-7.823 -0.5,-2.826 -2.627,-3.535 -4.765,-1.615 -0.639,0.574 -1.089,1.36 -1.609,2.062 -0.199,0.267 -0.352,0.568 -0.586,0.953 -0.032,-0.228 -0.062,-0.309 -0.052,-0.384 0.055,-0.354 0.143,-0.706 0.179,-1.062 0.229,-2.271 0.562,-4.462 3.425,-4.89 0.073,-0.011 0.14,-0.075 0.208,-0.116 1.646,-0.98 3.108,-2.147 3.697,-4.065 0.301,-0.979 0.361,-2.021 -0.46,-2.804 -0.771,-0.735 -1.744,-0.76 -2.685,-0.347 -0.463,0.203 -0.992,0.478 -1.256,0.876 -0.98,1.486 -2.041,2.962 -2.726,4.587 -0.514,1.219 -0.961,2.016 -2.422,1.792 -0.206,-0.031 -0.479,0.374 -0.721,0.577 0.233,0.262 0.421,0.643 0.712,0.755 0.343,0.134 0.777,0.033 1.335,0.033 z m 70.969,0.011 c -0.139,0.554 -0.296,0.972 -0.343,1.402 -0.273,2.488 -0.674,4.977 -0.721,7.471 -0.029,1.535 0.626,3.01 2.374,3.51 1.736,0.497 3.146,-0.126 4.27,-1.442 1.666,-1.951 2.376,-4.24 2.105,-6.781 -0.294,-2.75 -2.779,-4.081 -5.038,-2.687 -0.424,0.262 -0.92,1.133 -0.777,1.443 0.364,0.788 0.979,0.213 1.483,-0.079 1.296,-0.751 2.366,-0.336 2.736,1.12 0.482,1.897 -0.053,3.647 -1.01,5.265 -0.652,1.104 -1.435,2.332 -2.943,2.001 -1.602,-0.35 -1.882,-1.872 -1.768,-3.165 0.224,-2.526 0.729,-5.027 1.12,-7.538 0.117,-0.751 0.565,-1.11 1.303,-1.34 2.146,-0.668 4.014,-1.779 5.219,-3.768 0.933,-1.541 0.912,-3.344 -0.019,-4.096 -1.02,-0.823 -2.877,-0.554 -4.022,0.938 -1.15,1.499 -2.097,3.194 -2.879,4.918 -0.436,0.959 -0.953,1.364 -1.912,1.39 -0.2,0.006 -0.435,-0.039 -0.591,0.049 -0.306,0.171 -0.567,0.42 -0.848,0.637 0.303,0.25 0.571,0.599 0.919,0.724 0.353,0.125 0.785,0.028 1.342,0.028 z m -47.979,5.456 c 0,-0.359 0.036,-0.723 -0.006,-1.077 -0.31,-2.599 -2.528,-4.056 -4.794,-3.161 -1.341,0.53 -2.105,1.904 -1.885,3.39 0.173,1.169 1.146,2.108 2.39,2.117 0.457,0.003 1.233,-0.288 1.312,-0.589 0.203,-0.771 -0.515,-0.769 -1.084,-0.854 -1.033,-0.155 -1.497,-0.906 -0.986,-1.797 0.267,-0.466 0.896,-0.895 1.429,-1.002 0.954,-0.192 1.553,0.46 1.899,1.306 0.776,1.891 -0.124,5.205 -1.778,6.588 -1.551,1.296 -3.332,0.865 -3.797,-1.093 -0.284,-1.197 -0.052,-2.511 -0.111,-3.769 -0.018,-0.375 -0.239,-0.741 -0.367,-1.111 -0.342,0.252 -0.947,0.475 -0.979,0.761 -0.148,1.331 -0.291,2.697 -0.146,4.019 0.177,1.604 1.057,2.897 2.741,3.263 1.7,0.369 3.157,-0.253 4.273,-1.572 1.317,-1.557 1.877,-3.399 1.889,-5.419 z m -125.853,1.962 c 0.039,0.008 0.077,0.016 0.116,0.023 0,0.2 -0.005,0.399 0,0.599 0.061,2.181 1.134,3.896 2.733,4.369 1.71,0.506 3.633,-0.282 4.864,-2.034 1.299,-1.849 1.754,-3.938 1.46,-6.146 -0.345,-2.592 -2.689,-3.959 -4.904,-2.958 -1.292,0.584 -2.019,2.057 -1.718,3.486 0.239,1.142 1.27,2.016 2.517,1.971 0.417,-0.015 0.82,-0.396 1.229,-0.61 -0.356,-0.273 -0.676,-0.693 -1.075,-0.791 -1.183,-0.29 -1.688,-1.285 -0.908,-2.197 0.331,-0.386 1.111,-0.757 1.519,-0.623 0.633,0.208 1.348,0.745 1.629,1.333 0.834,1.746 -0.06,4.99 -1.595,6.405 -1.616,1.489 -3.542,1.026 -4,-1.11 -0.258,-1.203 0.004,-2.513 -0.038,-3.772 -0.01,-0.328 -0.279,-0.647 -0.429,-0.971 -0.302,0.194 -0.785,0.328 -0.873,0.592 -0.258,0.785 -0.362,1.62 -0.527,2.434 z m 38.269,-1.819 c 0.021,-4.022 -2.02,-5.53 -4.779,-4.208 -2.815,1.348 -4.911,6.386 -3.877,9.32 0.475,1.348 1.444,1.957 2.87,1.801 1.258,-0.138 2.811,-1.464 2.872,-2.542 0.016,-0.279 -0.216,-0.677 -0.456,-0.828 -0.15,-0.095 -0.563,0.119 -0.789,0.288 -0.174,0.13 -0.187,0.481 -0.363,0.601 -0.555,0.381 -1.307,1.097 -1.695,0.946 -0.535,-0.208 -1.114,-1.08 -1.136,-1.687 -0.084,-2.269 0.604,-4.336 2.272,-5.974 0.72,-0.708 1.597,-1.18 2.599,-0.736 0.993,0.44 1.106,1.413 1.006,2.362 -0.164,1.548 -0.429,3.085 -0.58,4.634 -0.072,0.743 -0.065,1.519 0.081,2.245 0.051,0.254 0.626,0.403 0.961,0.6 0.15,-0.322 0.386,-0.633 0.43,-0.969 0.076,-0.581 -0.019,-1.183 0.049,-1.766 0.181,-1.586 0.412,-3.166 0.535,-4.087 z m -21.296,-2.308 c 0.12,0.08 0.24,0.161 0.36,0.241 -0.272,-0.693 -0.469,-1.433 -0.855,-2.055 -0.159,-0.256 -0.726,-0.26 -1.108,-0.378 -0.061,0.385 -0.305,0.878 -0.152,1.135 0.673,1.128 0.59,2.303 0.363,3.485 -0.337,1.76 -0.741,3.508 -1.12,5.26 -0.127,0.586 -0.387,1.289 0.434,1.496 0.887,0.224 0.843,-0.617 1.024,-1.146 0.668,-1.953 1.227,-3.951 2.04,-5.842 0.389,-0.906 1.159,-1.72 1.93,-2.371 0.78,-0.659 1.558,-0.326 1.791,0.673 0.179,0.767 0.297,1.587 0.23,2.365 -0.152,1.744 -0.475,3.472 -0.637,5.215 -0.033,0.358 0.334,0.753 0.517,1.132 0.294,-0.196 0.798,-0.347 0.849,-0.593 0.589,-2.814 1.163,-5.652 0.495,-8.528 -0.499,-2.148 -2.301,-2.789 -4.128,-1.543 -0.69,0.467 -1.356,0.968 -2.033,1.454 z m 129.95,0.298 c -0.246,-0.677 -0.407,-1.421 -0.787,-2.03 -0.179,-0.286 -0.777,-0.309 -1.186,-0.451 -0.052,0.387 -0.176,0.781 -0.142,1.161 0.101,1.123 0.479,2.265 0.354,3.355 -0.208,1.815 -0.72,3.597 -1.111,5.391 -0.13,0.595 -0.358,1.301 0.479,1.469 0.876,0.176 0.814,-0.667 0.997,-1.198 0.673,-1.955 1.246,-3.952 2.055,-5.849 0.374,-0.875 1.111,-1.666 1.854,-2.292 0.832,-0.701 1.685,-0.37 1.846,0.708 0.181,1.21 0.215,2.463 0.132,3.686 -0.092,1.349 -0.427,2.681 -0.566,4.029 -0.029,0.288 0.327,0.615 0.505,0.925 0.304,-0.183 0.825,-0.319 0.876,-0.556 0.601,-2.817 1.169,-5.661 0.507,-8.541 -0.507,-2.206 -2.396,-2.86 -4.211,-1.483 -0.618,0.467 -1.087,1.128 -1.602,1.676 z m 12.076,3.33 c -0.017,3.442 0.894,4.955 2.778,5.454 1.651,0.437 3.193,0.147 4.427,-1.08 0.249,-0.247 0.164,-0.828 0.233,-1.255 -0.385,0.062 -0.792,0.066 -1.148,0.202 -0.324,0.124 -0.573,0.433 -0.892,0.586 -1.425,0.688 -2.981,0.21 -3.603,-1.079 -1.088,-2.257 0.328,-6.138 2.683,-7.053 0.551,-0.214 1.513,-0.134 1.921,0.225 0.677,0.595 0.296,1.527 -0.31,1.987 -0.694,0.528 -1.617,0.746 -2.406,1.165 -0.333,0.177 -0.577,0.523 -0.861,0.792 0.324,0.206 0.648,0.589 0.973,0.588 1.564,-0.005 2.868,-0.647 3.798,-1.926 0.727,-0.999 0.773,-2.605 0.162,-3.516 -0.587,-0.875 -1.969,-1.341 -3.247,-0.885 -0.839,0.3 -1.682,0.776 -2.33,1.381 -1.536,1.433 -2.153,3.31 -2.178,4.414 z m 27.596,1.046 c 0,0.16 -0.005,0.32 10e-4,0.479 0.063,1.676 0.674,3.041 2.28,3.765 1.523,0.687 3.739,0.345 4.806,-0.797 0.281,-0.301 0.264,-0.881 0.383,-1.333 -0.411,0.064 -0.834,0.091 -1.23,0.206 -0.215,0.062 -0.374,0.294 -0.579,0.415 -1.479,0.871 -3.253,0.404 -3.893,-1.015 -1.019,-2.263 0.386,-5.99 2.654,-7.009 0.726,-0.326 1.643,-0.558 1.993,0.28 0.226,0.537 0.02,1.589 -0.396,1.98 -0.614,0.577 -1.608,0.732 -2.397,1.149 -0.322,0.17 -0.529,0.558 -0.789,0.846 0.305,0.183 0.61,0.525 0.914,0.523 1.66,-0.008 3.042,-0.668 3.938,-2.095 0.659,-1.049 0.738,-2.218 0.089,-3.297 -0.646,-1.074 -1.788,-1.246 -2.861,-1.004 -0.859,0.193 -1.751,0.613 -2.428,1.174 -1.768,1.463 -2.459,3.474 -2.485,5.733 z m -55.437,-0.934 c -0.014,3.339 0.905,4.814 2.787,5.355 1.567,0.451 3.728,-0.072 4.506,-1.183 0.2,-0.285 0.103,-0.778 0.142,-1.175 -0.356,0.04 -0.739,0.013 -1.062,0.14 -0.321,0.127 -0.56,0.451 -0.872,0.616 -1.38,0.731 -2.988,0.306 -3.653,-0.941 -1.204,-2.258 0.308,-6.36 2.749,-7.206 0.527,-0.183 1.506,-0.064 1.779,0.295 0.278,0.366 0.177,1.461 -0.172,1.771 -0.697,0.62 -1.692,0.893 -2.532,1.367 -0.329,0.186 -0.571,0.528 -0.854,0.799 0.328,0.203 0.657,0.581 0.984,0.58 1.565,-0.007 2.866,-0.653 3.794,-1.934 0.727,-1.003 0.786,-2.616 0.148,-3.511 -0.758,-1.066 -1.908,-1.192 -3.015,-0.925 -0.819,0.198 -1.655,0.638 -2.299,1.186 -1.707,1.459 -2.394,3.427 -2.43,4.766 z m -84.137,5.73 c 2.015,0.008 3.313,-0.819 3.815,-2.431 0.546,-1.755 0.014,-3.136 -1.684,-4.311 -0.524,-0.362 -1.152,-0.609 -1.592,-1.049 -0.381,-0.381 -0.829,-1 -0.763,-1.441 0.066,-0.442 0.694,-1.051 1.145,-1.117 0.506,-0.075 1.095,0.365 1.638,0.602 0.407,0.177 0.8,0.386 1.199,0.582 0.002,-0.499 0.186,-1.099 -0.026,-1.478 -0.622,-1.111 -2.345,-1.456 -3.761,-0.885 -1.293,0.521 -2.14,1.787 -1.678,3.042 0.316,0.857 1.113,1.573 1.799,2.246 0.529,0.521 1.305,0.795 1.82,1.325 0.891,0.917 0.774,2.302 -0.14,3.096 -0.979,0.85 -2.603,0.828 -3.342,-0.131 -0.255,-0.332 -0.395,-0.894 -0.31,-1.291 0.049,-0.23 0.662,-0.322 1,-0.513 0.271,-0.153 0.512,-0.361 0.766,-0.545 -0.216,-0.292 -0.372,-0.732 -0.66,-0.85 -1.121,-0.457 -2.493,0.529 -2.679,1.854 -0.27,1.911 1.17,3.286 3.453,3.295 z m 41.162,-4.966 c 0.004,2.062 0.271,3.697 2.125,4.484 1.541,0.655 3.639,0.132 4.822,-1.186 0.433,-0.482 1.129,-1.113 0.461,-1.74 -0.749,-0.702 -1.035,0.258 -1.418,0.686 -0.778,0.871 -1.731,1.287 -2.888,1.037 -1.001,-0.216 -1.44,-1.017 -1.544,-1.921 -0.257,-2.245 0.277,-4.291 1.912,-5.925 0.998,-0.997 1.95,-0.995 3.087,-0.252 0.291,0.19 0.748,0.126 1.128,0.18 -0.021,-0.438 0.13,-1.05 -0.099,-1.275 -0.42,-0.412 -1.04,-0.75 -1.62,-0.843 -1.38,-0.221 -2.593,0.279 -3.595,1.246 -1.645,1.587 -2.306,3.581 -2.371,5.509 z m 113.87,-4.627 c -0.208,-0.39 -0.468,-1.052 -0.889,-1.588 -0.168,-0.213 -0.691,-0.147 -1.053,-0.208 -0.04,0.357 -0.248,0.827 -0.095,1.052 0.939,1.381 0.796,2.894 0.638,4.404 -0.149,1.43 -0.43,2.847 -0.541,4.278 -0.035,0.451 0.291,0.931 0.452,1.397 0.308,-0.374 0.783,-0.704 0.894,-1.128 0.399,-1.544 0.587,-3.145 1.021,-4.677 0.59,-2.087 1.388,-4.063 4.025,-4.313 0.218,-0.021 0.566,-0.506 0.54,-0.742 -0.025,-0.234 -0.424,-0.558 -0.698,-0.604 -0.414,-0.07 -0.938,-0.061 -1.282,0.141 -1.067,0.623 -2.07,1.354 -3.012,1.988 z" /><path
       style="clip-rule:evenodd;fill-rule:evenodd"
       id="path105"
       d="m 398.415,297.373 c -2.442,-0.127 -4.405,-0.104 -6.326,-0.378 -1.063,-0.153 -2.13,-0.683 -3.062,-1.259 -1.507,-0.932 -2.25,-2.381 -1.998,-4.182 0.232,-1.654 1.305,-2.707 2.786,-3.337 4.063,-1.731 8.964,0.777 9.968,5.082 0.098,0.418 0.171,0.841 0.257,1.268 2.725,-1.298 3.198,-4.887 0.734,-6.678 -1.42,-1.032 -3.179,-1.604 -4.802,-2.347 -1.085,-0.497 -2.241,-0.851 -3.293,-1.407 -1.52,-0.802 -2.39,-2.058 -2.325,-3.872 0.064,-1.776 0.969,-3.003 2.432,-3.866 1.658,-0.978 3.484,-1.024 5.347,-0.937 0.583,0.027 1.182,-0.213 1.771,-0.347 0.882,-0.202 1.754,-0.468 2.647,-0.595 0.231,-0.033 0.521,0.352 0.784,0.545 -0.245,0.25 -0.447,0.611 -0.744,0.726 -0.566,0.219 -1.188,0.297 -1.86,0.451 1.776,2.331 2.083,3.99 1.041,5.16 -0.722,0.811 -1.81,0.947 -2.835,0.356 -1.391,-0.802 -1.725,-2.473 -0.9,-4.83 -1.954,-0.272 -3.749,-0.09 -5.226,1.326 -1.458,1.396 -1.335,3.302 0.365,4.367 1.001,0.627 2.161,1.005 3.254,1.484 1.496,0.655 3.093,1.142 4.478,1.979 4.057,2.454 3.904,7.675 -0.183,10.083 -0.455,0.268 -0.839,0.801 -1.058,1.298 -0.659,1.501 -1.49,2.854 -2.981,3.619 -0.349,0.18 -0.906,-0.047 -1.367,-0.086 0.215,-0.393 0.366,-0.843 0.658,-1.165 0.72,-0.795 1.507,-1.53 2.438,-2.458 z m -3.689,-1.113 c 0.039,-0.095 0.076,-0.19 0.114,-0.285 0.909,-0.112 1.815,-0.259 2.727,-0.326 0.864,-0.064 1.014,-0.513 0.934,-1.282 -0.384,-3.713 -4.181,-6.17 -7.737,-4.953 -1.156,0.396 -2.068,1.114 -2.26,2.4 -0.194,1.303 0.462,2.359 1.551,2.859 1.487,0.684 3.108,1.073 4.671,1.587 z m 5.042,-19.185 c -0.812,1.229 -0.985,2.137 -0.414,3.037 0.175,0.275 0.689,0.567 0.948,0.494 0.264,-0.074 0.63,-0.65 0.56,-0.895 -0.236,-0.823 -0.645,-1.597 -1.094,-2.636 z" /><path
       style="clip-rule:evenodd;fill-rule:evenodd"
       id="path107"
       d="m 313.418,280.444 c -2.099,-0.888 -4.206,-1.836 -6.36,-2.658 -0.639,-0.244 -1.426,-0.247 -2.122,-0.163 -1.655,0.199 -2.327,1.754 -1.53,3.208 0.202,0.368 0.099,0.904 0.135,1.362 -0.465,-0.172 -1.097,-0.211 -1.366,-0.542 -0.825,-1.018 -0.823,-2.226 -0.312,-3.395 0.585,-1.339 1.711,-1.959 3.12,-2.09 1.984,-0.185 3.771,0.493 5.521,1.316 1.187,0.559 2.377,1.109 3.596,1.678 0.895,-1.318 1.814,-2.467 3.504,-2.522 0.949,-0.031 1.768,0.144 2.109,1.173 0.353,1.065 0.034,2.284 -0.952,2.697 -0.884,0.369 -1.931,0.586 -2.874,0.505 -0.982,-0.084 -1.292,0.393 -1.33,1.083 -0.115,2.104 -0.124,4.213 -0.167,6.321 -0.046,2.229 0.2,4.508 -0.183,6.677 -0.782,4.432 -4.839,6.848 -9.174,5.761 -3.292,-0.825 -4.962,-4.33 -3.445,-7.23 0.746,-1.428 2.101,-2.156 3.655,-1.964 1.299,0.16 2.103,1.176 1.837,2.442 -0.062,0.293 -0.426,0.638 -0.719,0.721 -0.168,0.047 -0.513,-0.352 -0.705,-0.605 -0.283,-0.373 -0.531,-1.147 -0.739,-1.129 -0.573,0.051 -1.271,0.285 -1.645,0.696 -1.279,1.411 -0.87,3.729 0.769,4.956 2.435,1.822 6.322,0.879 7.994,-1.954 1.25,-2.12 1.052,-4.45 0.958,-6.77 -0.091,-2.231 -0.19,-4.465 -0.157,-6.696 0.015,-0.925 0.362,-1.843 0.582,-2.878 z m 2.383,-1.099 c 0.076,0.143 0.152,0.287 0.229,0.43 0.568,-0.094 1.185,-0.084 1.685,-0.322 0.286,-0.135 0.38,-0.673 0.561,-1.029 -0.38,-0.099 -0.861,-0.391 -1.119,-0.256 -0.517,0.268 -0.911,0.77 -1.356,1.177 z" /><path
       style="clip-rule:evenodd;fill-rule:evenodd"
       id="path109"
       d="m 538.342,296.877 c 0.254,0.284 0.572,0.64 0.888,0.997 1.918,2.167 1.833,5.189 -0.202,7.242 -1.883,1.897 -5.51,2.609 -7.927,1.555 -1.806,-0.788 -2.683,-2.63 -2.169,-4.556 0.444,-1.665 1.927,-2.828 3.541,-2.592 0.598,0.087 1.176,0.548 1.67,0.952 0.143,0.116 0.06,0.697 -0.107,0.933 -0.105,0.149 -0.666,0.186 -0.836,0.046 -1.004,-0.828 -1.833,-0.661 -2.52,0.361 -0.672,1 -0.493,2.457 0.462,3.143 1.685,1.209 3.5,0.926 5.247,0.159 1.656,-0.727 2.727,-2.004 2.74,-3.881 0.014,-1.785 -1.473,-2.75 -2.453,-3.975 -0.088,-0.109 -0.456,0.012 -0.693,0.016 -2.187,0.038 -3.665,-1.065 -3.942,-3.201 -0.363,-2.794 0.338,-5.326 2.414,-7.343 1.297,-1.26 3.174,-1.601 4.526,-0.896 1.189,0.619 2.048,2.412 1.827,4.028 -0.044,0.328 -0.466,0.604 -0.714,0.904 -0.231,-0.269 -0.548,-0.503 -0.673,-0.814 -0.16,-0.397 -0.126,-0.867 -0.245,-1.286 -0.523,-1.832 -1.857,-2.278 -3.368,-1.147 -1.704,1.275 -2.81,4.57 -2.218,6.607 0.363,1.247 0.994,1.694 2.233,1.667 0.078,-0.907 0.022,-1.836 0.261,-2.682 0.42,-1.485 1.854,-2.21 3.063,-1.708 1.066,0.441 1.569,1.915 0.923,3.205 -0.397,0.792 -1.084,1.44 -1.728,2.266 z m -0.612,-1.081 c 0.451,-0.847 0.861,-1.488 1.122,-2.185 0.078,-0.207 -0.265,-0.57 -0.414,-0.862 -0.257,0.143 -0.608,0.223 -0.755,0.44 -0.489,0.723 -0.62,1.505 0.047,2.607 z" /><path
       style="clip-rule:evenodd;fill-rule:evenodd"
       id="path111"
       d="m 424.229,284.507 c -0.558,0 -0.991,0.101 -1.335,-0.031 -0.291,-0.112 -0.479,-0.493 -0.712,-0.755 0.241,-0.203 0.515,-0.608 0.721,-0.577 1.461,0.223 1.908,-0.573 2.422,-1.792 0.685,-1.625 1.745,-3.102 2.726,-4.587 0.264,-0.398 0.793,-0.673 1.256,-0.876 0.94,-0.413 1.913,-0.388 2.685,0.347 0.821,0.783 0.761,1.825 0.46,2.804 -0.589,1.918 -2.052,3.085 -3.697,4.065 -0.068,0.041 -0.135,0.105 -0.208,0.116 -2.862,0.428 -3.195,2.62 -3.425,4.89 -0.036,0.356 -0.124,0.707 -0.179,1.062 -0.011,0.075 0.02,0.156 0.052,0.384 0.234,-0.385 0.387,-0.686 0.586,-0.953 0.521,-0.701 0.971,-1.488 1.609,-2.062 2.138,-1.919 4.265,-1.211 4.765,1.615 0.465,2.633 0.138,5.258 -0.549,7.823 -0.088,0.328 -0.613,0.538 -0.936,0.803 -0.166,-0.392 -0.503,-0.8 -0.466,-1.172 0.152,-1.545 0.435,-3.078 0.634,-4.619 0.061,-0.471 0.062,-0.965 -0.007,-1.433 -0.131,-0.872 0.104,-2.044 -0.963,-2.379 -1.139,-0.358 -1.832,0.623 -2.412,1.415 -1.548,2.116 -2.416,4.482 -2.375,7.141 0.008,0.534 0.196,1.299 -0.639,1.235 -0.323,-0.025 -0.804,-0.705 -0.854,-1.129 -0.423,-3.489 0.094,-6.928 0.694,-10.356 0.046,-0.271 0.081,-0.542 0.147,-0.979 z m 2.432,-2.174 c 1.861,-0.725 3.516,-1.682 4.267,-3.6 0.166,-0.423 -0.093,-1.012 -0.156,-1.525 -0.474,0.106 -1.062,0.07 -1.402,0.343 -1.511,1.215 -2.213,2.935 -2.709,4.782 z" /><path
       style="clip-rule:evenodd;fill-rule:evenodd"
       id="path113"
       d="m 495.198,284.518 c -0.558,0 -0.989,0.098 -1.341,-0.027 -0.348,-0.125 -0.616,-0.473 -0.919,-0.724 0.28,-0.217 0.542,-0.465 0.848,-0.637 0.156,-0.088 0.391,-0.043 0.591,-0.049 0.959,-0.026 1.477,-0.431 1.912,-1.39 0.782,-1.724 1.729,-3.42 2.879,-4.918 1.146,-1.492 3.003,-1.761 4.022,-0.938 0.931,0.752 0.951,2.555 0.019,4.096 -1.205,1.989 -3.073,3.1 -5.219,3.768 -0.737,0.23 -1.186,0.588 -1.303,1.34 -0.392,2.511 -0.896,5.012 -1.12,7.538 -0.114,1.293 0.166,2.815 1.768,3.165 1.509,0.33 2.291,-0.897 2.943,-2.001 0.957,-1.618 1.492,-3.368 1.01,-5.265 -0.37,-1.456 -1.44,-1.871 -2.736,-1.12 -0.504,0.292 -1.119,0.867 -1.483,0.079 -0.143,-0.31 0.354,-1.181 0.777,-1.443 2.259,-1.395 4.744,-0.063 5.038,2.687 0.271,2.541 -0.439,4.83 -2.105,6.781 -1.124,1.316 -2.533,1.939 -4.27,1.442 -1.748,-0.5 -2.403,-1.975 -2.374,-3.51 0.047,-2.494 0.447,-4.983 0.721,-7.471 0.046,-0.432 0.204,-0.85 0.342,-1.403 z m 2.296,-2.57 c 0.134,0.094 0.268,0.188 0.401,0.282 1.785,-0.746 3.448,-1.679 4.245,-3.576 0.193,-0.461 -0.024,-1.095 -0.054,-1.649 -0.527,0.151 -1.275,0.132 -1.544,0.482 -1.095,1.426 -2.044,2.964 -3.048,4.461 z" /><path
       style="clip-rule:evenodd;fill-rule:evenodd"
       id="path115"
       d="m 447.219,289.974 c -0.012,2.02 -0.571,3.862 -1.889,5.418 -1.116,1.319 -2.573,1.941 -4.273,1.572 -1.685,-0.366 -2.564,-1.659 -2.741,-3.263 -0.146,-1.321 -0.003,-2.688 0.146,-4.019 0.032,-0.287 0.638,-0.509 0.979,-0.761 0.128,0.37 0.35,0.736 0.367,1.111 0.06,1.258 -0.173,2.572 0.111,3.769 0.465,1.958 2.246,2.39 3.797,1.093 1.654,-1.383 2.555,-4.697 1.778,-6.588 -0.347,-0.845 -0.945,-1.498 -1.899,-1.306 -0.533,0.107 -1.162,0.536 -1.429,1.002 -0.511,0.891 -0.047,1.642 0.986,1.797 0.569,0.085 1.287,0.083 1.084,0.854 -0.079,0.301 -0.855,0.592 -1.312,0.589 -1.243,-0.009 -2.217,-0.948 -2.39,-2.117 -0.221,-1.486 0.544,-2.86 1.885,-3.39 2.266,-0.895 4.484,0.562 4.794,3.161 0.042,0.355 0.006,0.719 0.006,1.078 z" /><path
       style="clip-rule:evenodd;fill-rule:evenodd"
       id="path117"
       d="m 321.366,291.936 c 0.165,-0.814 0.269,-1.649 0.528,-2.432 0.088,-0.265 0.571,-0.398 0.873,-0.592 0.15,0.323 0.419,0.643 0.429,0.971 0.042,1.259 -0.221,2.569 0.038,3.772 0.458,2.136 2.384,2.599 4,1.11 1.535,-1.415 2.429,-4.659 1.595,-6.405 -0.281,-0.588 -0.997,-1.125 -1.629,-1.333 -0.408,-0.134 -1.188,0.236 -1.519,0.623 -0.781,0.912 -0.275,1.907 0.908,2.197 0.399,0.098 0.719,0.518 1.075,0.791 -0.41,0.214 -0.813,0.595 -1.229,0.61 -1.247,0.044 -2.277,-0.83 -2.517,-1.971 -0.3,-1.429 0.426,-2.902 1.718,-3.486 2.214,-1 4.559,0.367 4.904,2.958 0.294,2.208 -0.161,4.296 -1.46,6.146 -1.23,1.752 -3.154,2.541 -4.864,2.034 -1.599,-0.473 -2.672,-2.188 -2.733,-4.369 -0.005,-0.2 0,-0.399 0,-0.599 -0.04,-0.009 -0.078,-0.017 -0.117,-0.025 z" /><path
       style="clip-rule:evenodd;fill-rule:evenodd"
       id="path119"
       d="m 359.635,290.117 c -0.124,0.921 -0.354,2.501 -0.538,4.087 -0.067,0.583 0.027,1.185 -0.049,1.766 -0.044,0.336 -0.28,0.646 -0.43,0.969 -0.335,-0.197 -0.911,-0.346 -0.961,-0.6 -0.146,-0.726 -0.153,-1.502 -0.081,-2.245 0.151,-1.549 0.416,-3.086 0.58,-4.634 0.101,-0.95 -0.013,-1.922 -1.006,-2.362 -1.001,-0.443 -1.878,0.029 -2.599,0.736 -1.667,1.638 -2.356,3.706 -2.272,5.974 0.022,0.607 0.602,1.478 1.136,1.687 0.388,0.151 1.141,-0.565 1.695,-0.946 0.176,-0.12 0.189,-0.471 0.363,-0.601 0.226,-0.169 0.639,-0.383 0.789,-0.288 0.24,0.151 0.472,0.549 0.456,0.828 -0.061,1.078 -1.613,2.405 -2.872,2.542 -1.425,0.156 -2.395,-0.453 -2.87,-1.801 -1.033,-2.934 1.062,-7.972 3.877,-9.32 2.763,-1.323 4.803,0.185 4.782,4.208 z" /><path
       style="clip-rule:evenodd;fill-rule:evenodd"
       id="path121"
       d="m 338.339,287.809 c 0.677,-0.486 1.343,-0.986 2.031,-1.456 1.827,-1.245 3.629,-0.605 4.128,1.543 0.668,2.875 0.094,5.714 -0.495,8.528 -0.051,0.246 -0.555,0.397 -0.849,0.593 -0.183,-0.378 -0.55,-0.773 -0.517,-1.132 0.162,-1.743 0.484,-3.472 0.637,-5.215 0.067,-0.778 -0.051,-1.598 -0.23,-2.365 -0.232,-0.999 -1.01,-1.332 -1.791,-0.673 -0.771,0.651 -1.541,1.465 -1.93,2.371 -0.812,1.891 -1.372,3.889 -2.04,5.842 -0.181,0.529 -0.137,1.371 -1.024,1.146 -0.82,-0.208 -0.561,-0.91 -0.434,-1.496 0.379,-1.752 0.783,-3.5 1.12,-5.26 0.227,-1.182 0.31,-2.357 -0.363,-3.485 -0.153,-0.257 0.091,-0.75 0.152,-1.135 0.382,0.119 0.949,0.122 1.108,0.378 0.386,0.623 0.583,1.362 0.855,2.055 -0.118,-0.079 -0.238,-0.159 -0.358,-0.239 z" /><path
       style="clip-rule:evenodd;fill-rule:evenodd"
       id="path123"
       d="m 468.289,288.107 c 0.515,-0.548 0.984,-1.209 1.601,-1.677 1.815,-1.377 3.704,-0.723 4.211,1.483 0.662,2.88 0.094,5.724 -0.507,8.541 -0.051,0.236 -0.572,0.373 -0.876,0.556 -0.178,-0.31 -0.534,-0.637 -0.505,-0.925 0.14,-1.348 0.475,-2.68 0.566,-4.029 0.083,-1.222 0.049,-2.476 -0.132,-3.686 -0.161,-1.078 -1.014,-1.41 -1.846,-0.708 -0.742,0.626 -1.479,1.417 -1.854,2.292 -0.809,1.897 -1.382,3.894 -2.055,5.849 -0.183,0.53 -0.121,1.374 -0.997,1.198 -0.837,-0.168 -0.608,-0.874 -0.479,-1.469 0.392,-1.794 0.903,-3.575 1.111,-5.391 0.125,-1.09 -0.254,-2.232 -0.354,-3.355 -0.034,-0.38 0.09,-0.773 0.142,-1.161 0.408,0.142 1.007,0.165 1.186,0.451 0.381,0.61 0.542,1.354 0.788,2.031 z" /><path
       style="clip-rule:evenodd;fill-rule:evenodd"
       id="path125"
       d="m 480.365,291.437 c 0.024,-1.104 0.642,-2.981 2.178,-4.415 0.648,-0.604 1.491,-1.081 2.33,-1.381 1.278,-0.457 2.66,0.01 3.247,0.885 0.611,0.91 0.564,2.517 -0.162,3.516 -0.93,1.279 -2.233,1.921 -3.798,1.926 -0.324,10e-4 -0.648,-0.382 -0.973,-0.588 0.284,-0.269 0.528,-0.615 0.861,-0.792 0.789,-0.419 1.712,-0.637 2.406,-1.165 0.605,-0.46 0.986,-1.393 0.31,-1.987 -0.408,-0.359 -1.37,-0.438 -1.921,-0.225 -2.354,0.915 -3.771,4.796 -2.683,7.053 0.621,1.29 2.178,1.767 3.603,1.079 0.318,-0.153 0.567,-0.462 0.892,-0.586 0.356,-0.136 0.764,-0.14 1.148,-0.202 -0.069,0.427 0.016,1.008 -0.233,1.255 -1.233,1.227 -2.775,1.517 -4.427,1.08 -1.884,-0.498 -2.794,-2.011 -2.778,-5.453 z" /><path
       style="clip-rule:evenodd;fill-rule:evenodd"
       id="path127"
       d="m 507.961,292.483 c 0.026,-2.26 0.717,-4.27 2.484,-5.735 0.677,-0.561 1.568,-0.98 2.428,-1.174 1.073,-0.241 2.216,-0.069 2.861,1.004 0.649,1.08 0.57,2.249 -0.089,3.297 -0.896,1.427 -2.278,2.087 -3.938,2.095 -0.304,10e-4 -0.609,-0.34 -0.914,-0.523 0.26,-0.289 0.467,-0.676 0.789,-0.846 0.789,-0.417 1.783,-0.572 2.397,-1.149 0.416,-0.392 0.622,-1.444 0.396,-1.98 -0.351,-0.837 -1.268,-0.606 -1.993,-0.28 -2.269,1.019 -3.673,4.746 -2.654,7.009 0.64,1.419 2.413,1.886 3.893,1.015 0.205,-0.121 0.364,-0.353 0.579,-0.415 0.396,-0.114 0.819,-0.142 1.23,-0.206 -0.119,0.452 -0.102,1.032 -0.383,1.333 -1.066,1.143 -3.282,1.484 -4.806,0.797 -1.606,-0.724 -2.217,-2.088 -2.28,-3.765 -0.005,-0.157 0,-0.316 0,-0.477 z" /><path
       style="clip-rule:evenodd;fill-rule:evenodd"
       id="path129"
       d="m 452.524,291.549 c 0.035,-1.339 0.723,-3.307 2.432,-4.765 0.644,-0.548 1.479,-0.988 2.299,-1.186 1.106,-0.267 2.257,-0.141 3.015,0.925 0.638,0.895 0.578,2.507 -0.148,3.511 -0.928,1.281 -2.229,1.927 -3.794,1.934 -0.327,10e-4 -0.656,-0.376 -0.984,-0.58 0.282,-0.271 0.524,-0.613 0.854,-0.799 0.84,-0.474 1.835,-0.747 2.532,-1.367 0.349,-0.31 0.45,-1.405 0.172,-1.771 -0.273,-0.359 -1.252,-0.478 -1.779,-0.295 -2.441,0.846 -3.953,4.948 -2.749,7.206 0.665,1.247 2.273,1.672 3.653,0.941 0.312,-0.166 0.551,-0.489 0.872,-0.616 0.322,-0.127 0.705,-0.1 1.062,-0.14 -0.039,0.397 0.059,0.89 -0.142,1.175 -0.778,1.111 -2.938,1.633 -4.506,1.183 -1.883,-0.542 -2.802,-2.017 -2.789,-5.356 z" /><path
       style="clip-rule:evenodd;fill-rule:evenodd"
       id="path131"
       d="m 368.387,297.279 c -2.282,-0.009 -3.723,-1.384 -3.454,-3.296 0.186,-1.325 1.558,-2.311 2.679,-1.854 0.288,0.117 0.443,0.558 0.66,0.85 -0.254,0.184 -0.494,0.392 -0.766,0.545 -0.338,0.191 -0.951,0.283 -1,0.513 -0.084,0.397 0.055,0.959 0.31,1.291 0.74,0.959 2.364,0.981 3.342,0.131 0.914,-0.793 1.031,-2.179 0.14,-3.096 -0.516,-0.53 -1.291,-0.805 -1.82,-1.325 -0.686,-0.673 -1.483,-1.389 -1.799,-2.246 -0.462,-1.254 0.385,-2.521 1.678,-3.042 1.416,-0.571 3.14,-0.226 3.761,0.885 0.212,0.379 0.029,0.979 0.026,1.478 -0.399,-0.195 -0.792,-0.404 -1.199,-0.582 -0.543,-0.236 -1.132,-0.677 -1.638,-0.602 -0.451,0.066 -1.079,0.675 -1.145,1.117 -0.066,0.441 0.382,1.06 0.763,1.441 0.44,0.44 1.068,0.687 1.592,1.049 1.698,1.175 2.23,2.556 1.684,4.311 -0.501,1.613 -1.799,2.44 -3.814,2.432 z" /><path
       style="clip-rule:evenodd;fill-rule:evenodd"
       id="path133"
       d="m 409.549,292.313 c 0.065,-1.928 0.727,-3.922 2.371,-5.51 1.002,-0.967 2.215,-1.467 3.595,-1.246 0.581,0.093 1.2,0.431 1.62,0.843 0.229,0.225 0.078,0.837 0.099,1.275 -0.38,-0.053 -0.837,0.01 -1.128,-0.18 -1.137,-0.742 -2.09,-0.744 -3.087,0.252 -1.635,1.634 -2.169,3.68 -1.912,5.925 0.104,0.905 0.542,1.705 1.544,1.921 1.157,0.25 2.11,-0.166 2.888,-1.037 0.383,-0.428 0.669,-1.388 1.418,-0.686 0.668,0.627 -0.028,1.257 -0.461,1.74 -1.184,1.318 -3.281,1.841 -4.822,1.186 -1.854,-0.785 -2.121,-2.421 -2.125,-4.483 z" /><path
       style="clip-rule:evenodd;fill-rule:evenodd"
       id="path135"
       d="m 523.419,287.686 c 0.942,-0.633 1.945,-1.365 3.012,-1.989 0.344,-0.202 0.868,-0.21 1.282,-0.141 0.274,0.046 0.673,0.37 0.698,0.604 0.026,0.236 -0.322,0.722 -0.54,0.742 -2.638,0.25 -3.436,2.226 -4.025,4.313 -0.434,1.532 -0.621,3.133 -1.021,4.677 -0.11,0.425 -0.586,0.755 -0.894,1.128 -0.161,-0.467 -0.487,-0.946 -0.452,-1.397 0.111,-1.432 0.392,-2.849 0.541,-4.278 0.158,-1.51 0.302,-3.023 -0.638,-4.404 -0.153,-0.225 0.055,-0.695 0.095,-1.052 0.361,0.061 0.885,-0.005 1.053,0.208 0.421,0.536 0.681,1.198 0.889,1.589 z" /><path
       style="clip-rule:evenodd;fill:#ffffff;fill-rule:evenodd"
       id="path137"
       d="m 394.726,296.26 c -1.563,-0.515 -3.185,-0.903 -4.67,-1.586 -1.089,-0.5 -1.745,-1.556 -1.551,-2.859 0.191,-1.286 1.104,-2.004 2.26,-2.4 3.556,-1.217 7.353,1.239 7.737,4.953 0.08,0.769 -0.07,1.218 -0.934,1.282 -0.912,0.067 -1.818,0.214 -2.727,0.326 -0.039,0.094 -0.076,0.189 -0.115,0.284 z" /><path
       style="clip-rule:evenodd;fill:#ffffff;fill-rule:evenodd"
       id="path139"
       d="m 399.768,277.075 c 0.449,1.039 0.858,1.812 1.093,2.636 0.07,0.245 -0.295,0.821 -0.56,0.895 -0.259,0.073 -0.772,-0.219 -0.948,-0.494 -0.571,-0.9 -0.398,-1.808 0.415,-3.037 z" /><path
       style="clip-rule:evenodd;fill:#ffffff;fill-rule:evenodd"
       id="path141"
       d="m 315.801,279.345 c 0.444,-0.406 0.838,-0.909 1.354,-1.177 0.258,-0.135 0.739,0.157 1.119,0.256 -0.181,0.356 -0.275,0.894 -0.561,1.029 -0.5,0.237 -1.117,0.228 -1.685,0.322 -0.074,-0.144 -0.151,-0.287 -0.227,-0.43 z" /><path
       style="clip-rule:evenodd;fill:#ffffff;fill-rule:evenodd"
       id="path143"
       d="m 537.73,295.796 c -0.667,-1.102 -0.536,-1.884 -0.047,-2.607 0.146,-0.218 0.498,-0.297 0.755,-0.44 0.149,0.292 0.492,0.656 0.414,0.862 -0.26,0.697 -0.67,1.339 -1.122,2.185 z" /><path
       style="clip-rule:evenodd;fill:#ffffff;fill-rule:evenodd"
       id="path145"
       d="m 426.661,282.333 c 0.496,-1.847 1.198,-3.567 2.708,-4.781 0.34,-0.273 0.929,-0.237 1.402,-0.343 0.063,0.513 0.322,1.102 0.156,1.525 -0.75,1.917 -2.405,2.874 -4.266,3.599 z" /><path
       style="clip-rule:evenodd;fill:#ffffff;fill-rule:evenodd"
       id="path147"
       d="m 497.494,281.948 c 1.004,-1.497 1.953,-3.036 3.049,-4.461 0.269,-0.35 1.017,-0.331 1.544,-0.482 0.029,0.554 0.247,1.188 0.054,1.649 -0.797,1.897 -2.46,2.831 -4.245,3.576 -0.134,-0.094 -0.268,-0.188 -0.402,-0.282 z" /></g></svg>